<svg width="89" height="27" viewBox="0 0 89 27" fill="none" xmlns="http://www.w3.org/2000/svg">
<path fill-rule="evenodd" clip-rule="evenodd" d="M54.6159 21.9491C57.9634 21.6096 60.8521 19.3221 61.9035 16.1794C62.9213 13.1377 62.0671 9.61465 59.7458 7.2705C58.8408 6.35658 58.8408 4.91024 59.7459 4.04001C60.6509 3.16978 62.1183 3.2052 63.0233 4.11912C66.5778 7.70854 67.8702 13.0395 66.3088 17.7062C64.7012 22.5113 60.3266 25.9753 55.2016 26.4952C50.0061 27.0223 44.7763 24.4387 42.0336 19.9792C39.388 15.6778 39.3801 10.226 42.0217 6.05389C44.6555 1.89467 49.5726 -0.44636 54.5864 0.071028C55.2594 0.140577 55.9288 0.26038 56.5871 0.428958C57.8329 0.748024 58.6052 1.99646 58.312 3.21742C58.0188 4.43838 56.7711 5.16951 55.5253 4.85045C55.0939 4.73997 54.6553 4.66148 54.2154 4.61603C50.9392 4.27794 47.691 5.82441 45.9703 8.54173C44.2454 11.2659 44.2506 14.8666 45.9811 17.6801C47.7684 20.5863 51.2238 22.2933 54.6159 21.9491ZM2.26985 23.9141C1.01546 23.9141 0 22.9147 0 21.68V5.30622C0 4.04218 1.01546 3.0427 2.29972 3.0427H2.77759C3.88265 3.0427 4.53971 3.57183 5.16691 4.36554L14.0373 15.8301V5.21803C14.0373 3.98338 15.0527 2.98391 16.3071 2.98391C17.5615 2.98391 18.577 3.98338 18.577 5.21803V21.5918C18.577 22.8559 17.5615 23.8553 16.2772 23.8553H16.1279C15.0229 23.8553 14.3658 23.3262 13.7386 22.5325L4.53971 10.6564V21.68C4.53971 22.9147 3.52425 23.9141 2.26985 23.9141ZM35.9518 23.7378H24.2143C22.93 23.7378 21.9146 22.7383 21.9146 21.4742V5.42381C21.9146 4.15976 22.93 3.16028 24.2143 3.16028H35.8025C36.9374 3.16028 37.8633 4.07157 37.8633 5.18864C37.8633 6.3057 36.9374 7.18759 35.8025 7.18759H26.4841V11.3619H34.4585C35.5934 11.3619 36.5193 12.2732 36.5193 13.3902C36.5193 14.5073 35.5934 15.3892 34.4585 15.3892H26.4841V19.7105H35.9518C37.0867 19.7105 38.0126 20.6217 38.0126 21.7388C38.0126 22.8559 37.0867 23.7378 35.9518 23.7378ZM70.423 21.68C70.423 22.9147 71.4385 23.9141 72.6929 23.9141C73.9473 23.9141 74.9627 22.9147 74.9627 21.68V10.6564L84.1616 22.5325C84.7888 23.3262 85.4459 23.8553 86.5509 23.8553H86.7003C87.9845 23.8553 89 22.8559 89 21.5918V5.21803C89 3.98338 87.9845 2.98391 86.7301 2.98391C85.4757 2.98391 84.4603 3.98338 84.4603 5.21803V15.8301L75.5899 4.36554C74.9627 3.57183 74.3057 3.0427 73.2006 3.0427H72.7227C71.4385 3.0427 70.423 4.04218 70.423 5.30622V21.68Z" fill="url(#paint0_linear_0_34)"/>
<defs>
<linearGradient id="paint0_linear_0_34" x1="0" y1="0" x2="0" y2="26.563" gradientUnits="userSpaceOnUse">
<stop stop-color="#C32AFF"/>
<stop offset="1" stop-color="#5C03AA"/>
</linearGradient>
</defs>
</svg>
